<?xml version="1.0" encoding="UTF-8"?>
<!DOCTYPE svg PUBLIC "-//W3C//DTD SVG 1.1//EN" "http://www.w3.org/Graphics/SVG/1.1/DTD/svg11.dtd">
<svg xmlns="http://www.w3.org/2000/svg" version="1.1" width="310px" height="319px" style="shape-rendering:geometricPrecision; text-rendering:geometricPrecision; image-rendering:optimizeQuality; fill-rule:evenodd; clip-rule:evenodd" xmlns:xlink="http://www.w3.org/1999/xlink">
<g><path style="opacity:1" fill="#fdfdfd" d="M -0.5,-0.5 C 102.833,-0.5 206.167,-0.5 309.5,-0.5C 309.5,105.833 309.5,212.167 309.5,318.5C 206.167,318.5 102.833,318.5 -0.5,318.5C -0.5,212.167 -0.5,105.833 -0.5,-0.5 Z"/></g>
<g><path style="opacity:1" fill="#f2d46c" d="M 215.5,14.5 C 215.5,14.8333 215.5,15.1667 215.5,15.5C 175.167,15.5 134.833,15.5 94.5,15.5C 94.5,15.1667 94.5,14.8333 94.5,14.5C 134.821,13.1722 175.154,13.1722 215.5,14.5 Z"/></g>
<g><path style="opacity:1" fill="#f4db91" d="M 94.5,14.5 C 94.5,14.8333 94.5,15.1667 94.5,15.5C 90.8019,15.5524 87.1352,15.8857 83.5,16.5C 86.8448,14.783 90.5115,14.1164 94.5,14.5 Z"/></g>
<g><path style="opacity:1" fill="#f9e9b4" d="M 215.5,15.5 C 215.5,15.1667 215.5,14.8333 215.5,14.5C 220.301,14.3498 224.967,15.0165 229.5,16.5C 229.5,16.8333 229.5,17.1667 229.5,17.5C 224.938,16.2043 220.271,15.5376 215.5,15.5 Z"/></g>
<g><path style="opacity:1" fill="#f5cb38" d="M 94.5,15.5 C 134.833,15.5 175.167,15.5 215.5,15.5C 220.271,15.5376 224.938,16.2043 229.5,17.5C 234.994,18.9135 239.994,21.4135 244.5,25C 246.154,25.6077 247.821,26.1077 249.5,26.5C 251.443,29.4707 254.109,31.4707 257.5,32.5C 257.5,33.1667 257.833,33.5 258.5,33.5C 261.138,36.4744 263.805,39.4744 266.5,42.5C 267.08,44.7488 268.413,46.4154 270.5,47.5C 270.427,49.0269 271.094,50.0269 272.5,50.5C 273.984,53.4388 275.317,56.4388 276.5,59.5C 277.024,63.5039 278.024,67.3372 279.5,71C 279.155,72.5735 278.489,73.7402 277.5,74.5C 279.927,76.163 281.427,78.4963 282,81.5C 282.5,123.499 282.667,165.499 282.5,207.5C 282.5,208.833 282.5,210.167 282.5,211.5C 282.5,212.5 282.5,213.5 282.5,214.5C 280.165,220.512 277.832,226.512 275.5,232.5C 273.277,235.144 271.611,238.144 270.5,241.5C 270.5,242.167 270.167,242.5 269.5,242.5C 267.1,244.296 265.433,246.63 264.5,249.5C 260.914,250.75 258.248,253.084 256.5,256.5C 254.147,257.34 252.147,258.674 250.5,260.5C 250.5,260.833 250.5,261.167 250.5,261.5C 245.32,262.585 240.987,264.918 237.5,268.5C 235.102,268.259 233.102,268.926 231.5,270.5C 228.273,270.676 225.273,271.343 222.5,272.5C 178.85,273.468 135.183,273.801 91.5,273.5C 89.3792,273.675 87.3792,273.341 85.5,272.5C 83.4006,271.388 81.0673,270.721 78.5,270.5C 77.5,270.5 76.5,270.5 75.5,270.5C 73.4336,268.801 71.1003,267.468 68.5,266.5C 64.8621,264.776 61.1954,262.943 57.5,261C 51.8634,256.374 46.53,251.541 41.5,246.5C 40.4884,245.128 39.4884,243.795 38.5,242.5C 36.3357,237.5 33.669,232.833 30.5,228.5C 29.5717,223.426 27.9051,218.759 25.5,214.5C 25.5,212.167 25.5,209.833 25.5,207.5C 25.1937,164.48 25.527,121.48 26.5,78.5C 27.5,78.5 28.5,78.5 29.5,78.5C 29.9053,73.9902 29.9053,69.3236 29.5,64.5C 29.9348,61.8427 30.9348,59.5093 32.5,57.5C 33.4861,55.5739 34.4861,53.5739 35.5,51.5C 36.4746,49.2048 37.8079,47.2048 39.5,45.5C 41.914,44.0892 43.5806,42.0892 44.5,39.5C 46.8998,36.0969 49.8998,33.4302 53.5,31.5C 55.9095,30.2993 57.9095,28.6326 59.5,26.5C 63.7825,23.9701 68.1158,21.6368 72.5,19.5C 75.1522,19.5905 77.4855,18.9238 79.5,17.5C 80.8333,17.1667 82.1667,16.8333 83.5,16.5C 87.1352,15.8857 90.8019,15.5524 94.5,15.5 Z"/></g>
<g><path style="opacity:1" fill="#f6e299" d="M 79.5,17.5 C 77.4855,18.9238 75.1522,19.5905 72.5,19.5C 74.5145,18.0762 76.8478,17.4095 79.5,17.5 Z"/></g>
<g><path style="opacity:1" fill="#f6f6f6" d="M 34.5,237.5 C 35.1276,239.662 36.461,241.328 38.5,242.5C 39.4884,243.795 40.4884,245.128 41.5,246.5C 41.6715,248.492 41.0049,250.158 39.5,251.5C 44.9957,256.574 49.9957,262.074 54.5,268C 57.3924,268.894 59.7257,270.56 61.5,273C 74.2713,282.446 88.6046,287.779 104.5,289C 141.519,290.425 178.519,290.925 215.5,290.5C 219.389,288.423 223.389,287.756 227.5,288.5C 256.987,282.494 278.487,266.16 292,239.5C 294.543,230.936 296.876,222.269 299,213.5C 301.165,173.456 300.999,133.456 298.5,93.5C 296.324,72.3249 287.99,54.4916 273.5,40C 271.693,38.3977 269.693,37.0644 267.5,36C 269.686,35.3964 269.852,34.2297 268,32.5C 267.167,33.5 266.333,34.5 265.5,35.5C 263.477,33.8267 261.144,33.1601 258.5,33.5C 257.833,33.5 257.5,33.1667 257.5,32.5C 257.895,29.4775 256.895,28.4775 254.5,29.5C 253.06,28.0476 251.394,27.0476 249.5,26.5C 247.821,26.1077 246.154,25.6077 244.5,25C 239.994,21.4135 234.994,18.9135 229.5,17.5C 229.5,17.1667 229.5,16.8333 229.5,16.5C 233.78,14.1681 238.113,14.3348 242.5,17C 240.071,17.4512 239.904,18.2845 242,19.5C 244.737,18.3895 247.571,18.2228 250.5,19C 256.807,22.8124 263.141,26.4791 269.5,30C 270.833,30.6667 270.833,31.3333 269.5,32C 270.623,33.0437 271.956,33.7104 273.5,34C 288.588,48.1629 298.254,65.4963 302.5,86C 302.265,86.8732 301.931,87.7065 301.5,88.5C 303.135,94.3541 303.968,100.354 304,106.5C 304.901,142.517 304.567,178.517 303,214.5C 299.377,237.163 289.543,256.33 273.5,272C 271.655,273.128 269.655,273.628 267.5,273.5C 267.649,274.552 267.483,275.552 267,276.5C 253.656,285.883 238.823,291.383 222.5,293C 181.833,293.667 141.167,293.667 100.5,293C 94.1945,291.539 87.8611,290.206 81.5,289C 55.8824,278.458 37.7157,260.625 27,235.5C 26.3265,232.479 25.9932,229.479 26,226.5C 28.7731,229.975 30.4398,233.975 31,238.5C 33.4837,241.259 34.6503,240.926 34.5,237.5 Z"/></g>
<g><path style="opacity:1" fill="#f9e49c" d="M 59.5,26.5 C 57.9095,28.6326 55.9095,30.2993 53.5,31.5C 54.6385,28.9138 56.6385,27.2471 59.5,26.5 Z"/></g>
<g><path style="opacity:1" fill="#f5eccc" d="M 249.5,26.5 C 251.394,27.0476 253.06,28.0476 254.5,29.5C 256.895,28.4775 257.895,29.4775 257.5,32.5C 254.109,31.4707 251.443,29.4707 249.5,26.5 Z"/></g>
<g><path style="opacity:1" fill="#f6e092" d="M 44.5,39.5 C 43.5806,42.0892 41.914,44.0892 39.5,45.5C 40.4194,42.9108 42.086,40.9108 44.5,39.5 Z"/></g>
<g><path style="opacity:1" fill="#eed78b" d="M 266.5,42.5 C 268.587,43.5846 269.92,45.2512 270.5,47.5C 268.413,46.4154 267.08,44.7488 266.5,42.5 Z"/></g>
<g><path style="opacity:1" fill="#eadb92" d="M 270.5,47.5 C 271.906,47.9731 272.573,48.9731 272.5,50.5C 271.094,50.0269 270.427,49.0269 270.5,47.5 Z"/></g>
<g><path style="opacity:1" fill="#faedba" d="M 35.5,51.5 C 34.4861,53.5739 33.4861,55.5739 32.5,57.5C 32.3398,55.8008 32.5065,54.1341 33,52.5C 33.6708,51.7476 34.5041,51.4142 35.5,51.5 Z"/></g>
<g><path style="opacity:1" fill="#eeeeed" d="M 41.5,246.5 C 46.53,251.541 51.8634,256.374 57.5,261C 61.1954,262.943 64.8621,264.776 68.5,266.5C 68.5,266.833 68.5,267.167 68.5,267.5C 68.4226,268.75 67.756,269.583 66.5,270C 68.5,271.333 70.5,272.667 72.5,274C 76.4695,273.674 80.4695,273.674 84.5,274C 82.2115,274.822 79.8782,275.489 77.5,276C 78.7932,276.49 80.1266,276.657 81.5,276.5C 81.5,277.5 81.5,278.5 81.5,279.5C 89.192,280.839 96.8586,282.339 104.5,284C 136.686,284.185 168.852,284.685 201,285.5C 220.588,286.208 239.088,281.708 256.5,272C 278.839,257.168 291.339,236.335 294,209.5C 294.24,200.977 294.74,192.477 295.5,184C 294.172,163.496 294.172,142.996 295.5,122.5C 295.836,105.795 293.669,89.4616 289,73.5C 288.5,72.3333 287.667,71.5 286.5,71C 287.576,69.2739 287.743,67.4406 287,65.5C 285.913,67.9316 285.413,67.5983 285.5,64.5C 284.5,64.5 283.5,64.5 282.5,64.5C 281.888,67.304 281.888,70.304 282.5,73.5C 281.033,68.5708 279.033,63.9041 276.5,59.5C 275.317,56.4388 273.984,53.4388 272.5,50.5C 272.573,48.9731 271.906,47.9731 270.5,47.5C 269.92,45.2512 268.587,43.5846 266.5,42.5C 263.805,39.4744 261.138,36.4744 258.5,33.5C 261.144,33.1601 263.477,33.8267 265.5,35.5C 266.333,34.5 267.167,33.5 268,32.5C 269.852,34.2297 269.686,35.3964 267.5,36C 269.693,37.0644 271.693,38.3977 273.5,40C 287.99,54.4916 296.324,72.3249 298.5,93.5C 300.999,133.456 301.165,173.456 299,213.5C 296.876,222.269 294.543,230.936 292,239.5C 278.487,266.16 256.987,282.494 227.5,288.5C 223.389,287.756 219.389,288.423 215.5,290.5C 178.519,290.925 141.519,290.425 104.5,289C 88.6046,287.779 74.2713,282.446 61.5,273C 59.7257,270.56 57.3924,268.894 54.5,268C 49.9957,262.074 44.9957,256.574 39.5,251.5C 41.0049,250.158 41.6715,248.492 41.5,246.5 Z"/></g>
<g><path style="opacity:1" fill="#ba9b2b" d="M 265.5,93.5 C 266.368,90.3273 266.368,87.3273 265.5,84.5C 265.857,82.4109 266.523,80.4109 267.5,78.5C 267.833,79.3333 268.167,80.1667 268.5,81C 268.185,85.4825 267.185,89.6491 265.5,93.5 Z"/></g>
<g><path style="opacity:1" fill="#654510" d="M 246.5,90.5 C 245.833,90.5 245.167,90.5 244.5,90.5C 246.161,87.7823 248.161,86.1156 250.5,85.5C 249.388,87.4192 248.054,89.0858 246.5,90.5 Z"/></g>
<g><path style="opacity:1" fill="#513d14" d="M 265.5,84.5 C 266.368,87.3273 266.368,90.3273 265.5,93.5C 265.5,93.8333 265.5,94.1667 265.5,94.5C 264.833,95.1667 264.167,95.8333 263.5,96.5C 263.591,94.3023 262.925,93.9689 261.5,95.5C 262.558,91.7207 263.891,88.0541 265.5,84.5 Z"/></g>
<g><path style="opacity:1" fill="#261210" d="M 263.5,96.5 C 263.5,97.1667 263.5,97.8333 263.5,98.5C 262.883,98.6107 262.383,98.944 262,99.5C 261.51,98.2068 261.343,96.8734 261.5,95.5C 262.925,93.9689 263.591,94.3023 263.5,96.5 Z"/></g>
<g><path style="opacity:1" fill="#eecf4d" d="M 29.5,64.5 C 29.9053,69.3236 29.9053,73.9902 29.5,78.5C 28.5,78.5 27.5,78.5 26.5,78.5C 25.527,121.48 25.1937,164.48 25.5,207.5C 24.596,206.791 24.2627,205.791 24.5,204.5C 24.1884,161.81 24.5217,119.143 25.5,76.5C 26.3194,72.2251 27.6527,68.2251 29.5,64.5 Z"/></g>
<g><path style="opacity:1" fill="#dabb3c" d="M 265.5,94.5 C 265.724,98.2044 265.89,101.871 266,105.5C 265.751,104.376 265.251,103.376 264.5,102.5C 263.007,105.698 261.34,108.698 259.5,111.5C 260.811,107.228 262.145,102.895 263.5,98.5C 263.5,97.8333 263.5,97.1667 263.5,96.5C 264.167,95.8333 264.833,95.1667 265.5,94.5 Z"/></g>
<g><path style="opacity:1" fill="#322512" d="M 261.5,95.5 C 261.343,96.8734 261.51,98.2068 262,99.5C 262.383,98.944 262.883,98.6107 263.5,98.5C 262.145,102.895 260.811,107.228 259.5,111.5C 258.527,113.139 257.194,114.473 255.5,115.5C 256.052,113.669 256.052,112.003 255.5,110.5C 253.21,111.467 251.21,112.8 249.5,114.5C 253.753,108.327 257.753,101.994 261.5,95.5 Z"/></g>
<g><path style="opacity:1" fill="#574213" d="M 80.5,108.5 C 80.3893,109.117 80.056,109.617 79.5,110C 85.0158,110.173 90.3491,110.673 95.5,111.5C 88.3097,111.166 81.3097,111.666 74.5,113C 76.1137,110.873 78.1137,109.373 80.5,108.5 Z"/></g>
<g><path style="opacity:1" fill="#eecd45" d="M 276.5,59.5 C 279.033,63.9041 281.033,68.5708 282.5,73.5C 283.81,118.317 283.81,162.984 282.5,207.5C 282.667,165.499 282.5,123.499 282,81.5C 281.427,78.4963 279.927,76.163 277.5,74.5C 278.489,73.7402 279.155,72.5735 279.5,71C 278.024,67.3372 277.024,63.5039 276.5,59.5 Z"/></g>
<g><path style="opacity:1" fill="#d2d0ce" d="M 282.5,64.5 C 284.623,70.2208 285.789,76.2208 286,82.5C 286.974,80.1224 287.641,80.4557 288,83.5C 289.611,95.2346 290.777,106.901 291.5,118.5C 290.167,141.833 290.167,165.167 291.5,188.5C 290.502,197.804 289.835,207.137 289.5,216.5C 288.448,216.351 287.448,216.517 286.5,217C 287.804,217.804 288.471,218.971 288.5,220.5C 286.355,224.092 285.022,228.092 284.5,232.5C 283.808,231.975 283.308,231.308 283,230.5C 281.704,234.61 280.204,238.61 278.5,242.5C 277.482,243.193 276.482,243.859 275.5,244.5C 276.299,241.57 276.632,238.57 276.5,235.5C 277.5,235.5 278.5,235.5 279.5,235.5C 280.579,228.612 281.579,221.612 282.5,214.5C 282.5,213.5 282.5,212.5 282.5,211.5C 283.268,210.737 283.768,209.737 284,208.5C 284.667,164.833 284.667,121.167 284,77.5C 283.79,75.9419 283.29,74.6085 282.5,73.5C 281.888,70.304 281.888,67.304 282.5,64.5 Z"/></g>
<g><path style="opacity:1" fill="#4e3a0f" d="M 72.5,119.5 C 65.4921,119.334 58.4921,119.5 51.5,120C 50.2625,120.232 49.2625,120.732 48.5,121.5C 46.901,121.768 45.5676,121.434 44.5,120.5C 53.8895,118.345 63.2228,118.011 72.5,119.5 Z"/></g>
<g><path style="opacity:1" fill="#624c14" d="M 124.5,117.5 C 127.152,117.41 129.485,118.076 131.5,119.5C 128.848,119.59 126.515,118.924 124.5,117.5 Z"/></g>
<g><path style="opacity:1" fill="#fae6ab" d="M 25.5,76.5 C 24.5217,119.143 24.1884,161.81 24.5,204.5C 23.3353,162.669 23.1687,120.669 24,78.5C 24.2784,77.5842 24.7784,76.9175 25.5,76.5 Z"/></g>
<g><path style="opacity:1" fill="#ddcb72" d="M 282.5,73.5 C 283.29,74.6085 283.79,75.9419 284,77.5C 284.667,121.167 284.667,164.833 284,208.5C 283.768,209.737 283.268,210.737 282.5,211.5C 282.5,210.167 282.5,208.833 282.5,207.5C 283.81,162.984 283.81,118.317 282.5,73.5 Z"/></g>
<g><path style="opacity:1" fill="#a2892a" d="M 44.5,120.5 C 45.5676,121.434 46.901,121.768 48.5,121.5C 51.3854,121.194 54.0521,121.527 56.5,122.5C 51.4889,122.666 46.4889,122.499 41.5,122C 42.5266,121.487 43.5266,120.987 44.5,120.5 Z"/></g>
<g><path style="opacity:1" fill="#ceae3e" d="M 220.5,118.5 C 218.657,122.009 215.657,123.343 211.5,122.5C 214.314,120.93 217.314,119.597 220.5,118.5 Z"/></g>
<g><path style="opacity:1" fill="#47350d" d="M 66.5,123.5 C 69.716,123.345 72.3826,124.345 74.5,126.5C 71.6027,125.871 68.936,124.871 66.5,123.5 Z"/></g>
<g><path style="opacity:1" fill="#231a10" d="M 244.5,90.5 C 245.167,90.5 245.833,90.5 246.5,90.5C 240.258,102.076 231.592,111.409 220.5,118.5C 217.314,119.597 214.314,120.93 211.5,122.5C 208.603,123.129 205.936,124.129 203.5,125.5C 203.167,125.5 202.833,125.5 202.5,125.5C 199.505,125.294 196.838,125.96 194.5,127.5C 191.833,127.5 189.167,127.5 186.5,127.5C 168.794,127.787 151.461,125.454 134.5,120.5C 133.209,120.737 132.209,120.404 131.5,119.5C 129.485,118.076 127.152,117.41 124.5,117.5C 115.009,115.047 105.342,113.047 95.5,111.5C 90.3491,110.673 85.0158,110.173 79.5,110C 80.056,109.617 80.3893,109.117 80.5,108.5C 81.9746,106.59 83.9746,105.424 86.5,105C 92.1667,104.333 97.8333,104.333 103.5,105C 120.992,109.623 138.658,113.456 156.5,116.5C 157.609,117.29 158.942,117.79 160.5,118C 169.676,118.824 178.676,118.657 187.5,117.5C 195.241,116.409 202.908,115.076 210.5,113.5C 212.967,113.245 214.967,112.245 216.5,110.5C 227.251,105.794 236.584,99.1271 244.5,90.5 Z"/></g>
<g><path style="opacity:1" fill="#6b541c" d="M 156.5,116.5 C 166.815,117.267 177.148,117.601 187.5,117.5C 178.676,118.657 169.676,118.824 160.5,118C 158.942,117.79 157.609,117.29 156.5,116.5 Z"/></g>
<g><path style="opacity:1" fill="#5e4915" d="M 216.5,110.5 C 214.967,112.245 212.967,113.245 210.5,113.5C 212.033,111.755 214.033,110.755 216.5,110.5 Z"/></g>
<g><path style="opacity:1" fill="#b5983e" d="M 211.5,122.5 C 209.383,124.655 206.716,125.655 203.5,125.5C 205.936,124.129 208.603,123.129 211.5,122.5 Z"/></g>
<g><path style="opacity:1" fill="#b29133" d="M 202.5,125.5 C 200.095,126.768 197.428,127.435 194.5,127.5C 196.838,125.96 199.505,125.294 202.5,125.5 Z"/></g>
<g><path style="opacity:1" fill="#a2872a" d="M 251.5,123.5 C 250.92,125.749 249.587,127.415 247.5,128.5C 248.08,126.251 249.413,124.585 251.5,123.5 Z"/></g>
<g><path style="opacity:1" fill="#ceac41" d="M 96.5,126.5 C 101.152,126.33 104.819,127.997 107.5,131.5C 103.844,129.679 100.177,128.013 96.5,126.5 Z"/></g>
<g><path style="opacity:1" fill="#ecc43c" d="M 134.5,120.5 C 151.461,125.454 168.794,127.787 186.5,127.5C 178.677,128.329 170.677,128.829 162.5,129C 163.167,129.333 163.833,129.667 164.5,130C 156.711,131.44 149.044,133.44 141.5,136C 138.806,138.552 139.473,139.719 143.5,139.5C 143.5,138.5 143.5,137.5 143.5,136.5C 147.658,136.12 151.325,137.12 154.5,139.5C 151.127,138.865 147.794,138.365 144.5,138C 147.438,140.257 150.771,141.424 154.5,141.5C 158.584,142.92 162.584,144.587 166.5,146.5C 163.568,146.716 160.902,146.049 158.5,144.5C 157.446,144.68 156.446,145.013 155.5,145.5C 153.999,144.248 152.332,143.248 150.5,142.5C 148.45,143.077 147.45,144.41 147.5,146.5C 149.695,145.392 151.695,145.559 153.5,147C 149.622,147.949 149.622,149.115 153.5,150.5C 152.624,151.251 151.624,151.751 150.5,152C 153.468,154.135 155.968,153.635 158,150.5C 158.5,150.833 159,151.167 159.5,151.5C 158.5,152.333 157.5,153.167 156.5,154C 160.227,155.252 163.56,157.085 166.5,159.5C 154.29,155.687 142.624,150.687 131.5,144.5C 136.11,144.404 136.444,143.404 132.5,141.5C 136,139.653 138.667,136.987 140.5,133.5C 139.675,132.614 138.675,132.281 137.5,132.5C 137.5,131.5 137.5,130.5 137.5,129.5C 140.055,130.413 142.721,131.08 145.5,131.5C 147.712,131.588 149.712,131.088 151.5,130C 145.128,129.43 138.795,128.596 132.5,127.5C 134.416,125.683 136.749,124.516 139.5,124C 138.167,123.667 136.833,123.333 135.5,123C 134.748,122.329 134.414,121.496 134.5,120.5 Z"/></g>
<g><path style="opacity:1" fill="#211911" d="M 72.5,119.5 C 80.8653,120.622 88.8653,122.956 96.5,126.5C 100.177,128.013 103.844,129.679 107.5,131.5C 110.999,133.75 114.665,135.75 118.5,137.5C 118.973,138.906 119.973,139.573 121.5,139.5C 124.55,141.692 127.883,143.358 131.5,144.5C 142.624,150.687 154.29,155.687 166.5,159.5C 166.833,159.5 167.167,159.5 167.5,159.5C 169.102,161.074 171.102,161.741 173.5,161.5C 174.919,162.451 176.585,162.784 178.5,162.5C 182.295,163.617 186.295,164.283 190.5,164.5C 194.312,165.324 198.312,165.824 202.5,166C 201.263,166.232 200.263,166.732 199.5,167.5C 199.167,167.5 198.833,167.5 198.5,167.5C 186.482,167.642 174.482,167.309 162.5,166.5C 161.833,166.5 161.167,166.5 160.5,166.5C 155.5,164.057 150.166,162.39 144.5,161.5C 137.618,159.104 130.952,156.104 124.5,152.5C 123.656,150.241 121.989,149.241 119.5,149.5C 104.911,141.039 89.9108,133.372 74.5,126.5C 72.3826,124.345 69.716,123.345 66.5,123.5C 63.1933,122.949 59.8599,122.616 56.5,122.5C 54.0521,121.527 51.3854,121.194 48.5,121.5C 49.2625,120.732 50.2625,120.232 51.5,120C 58.4921,119.5 65.4921,119.334 72.5,119.5 Z"/></g>
<g><path style="opacity:1" fill="#91751f" d="M 118.5,137.5 C 120.027,137.427 121.027,138.094 121.5,139.5C 119.973,139.573 118.973,138.906 118.5,137.5 Z"/></g>
<g><path style="opacity:1" fill="#573e10" d="M 154.5,139.5 C 155.167,139.5 155.5,139.833 155.5,140.5C 154.833,140.5 154.5,140.833 154.5,141.5C 150.771,141.424 147.438,140.257 144.5,138C 147.794,138.365 151.127,138.865 154.5,139.5 Z"/></g>
<g><path style="opacity:1" fill="#a48935" d="M 159.5,140.5 C 169.482,141.257 179.482,141.59 189.5,141.5C 189.5,141.833 189.5,142.167 189.5,142.5C 181.493,142.666 173.493,142.5 165.5,142C 163.292,141.809 161.292,141.309 159.5,140.5 Z"/></g>
<g><path style="opacity:1" fill="#654c1a" d="M 201.5,140.5 C 197.817,142.25 193.817,142.917 189.5,142.5C 189.5,142.167 189.5,141.833 189.5,141.5C 193.534,141.495 197.534,141.162 201.5,140.5 Z"/></g>
<g><path style="opacity:1" fill="#21180f" d="M 255.5,115.5 C 254.571,118.412 253.238,121.079 251.5,123.5C 249.413,124.585 248.08,126.251 247.5,128.5C 241.64,134.367 234.973,139.034 227.5,142.5C 224.603,143.129 221.936,144.129 219.5,145.5C 218.167,145.833 216.833,146.167 215.5,146.5C 210.938,147.796 206.271,148.462 201.5,148.5C 191.778,148.541 182.112,147.874 172.5,146.5C 171.942,145.21 170.942,144.377 169.5,144C 176.346,143.828 183.013,143.328 189.5,142.5C 193.817,142.917 197.817,142.25 201.5,140.5C 220.414,137.046 236.414,128.379 249.5,114.5C 251.21,112.8 253.21,111.467 255.5,110.5C 256.052,112.003 256.052,113.669 255.5,115.5 Z"/></g>
<g><path style="opacity:1" fill="#30220a" d="M 155.5,140.5 C 156.833,140.5 158.167,140.5 159.5,140.5C 161.292,141.309 163.292,141.809 165.5,142C 173.493,142.5 181.493,142.666 189.5,142.5C 183.013,143.328 176.346,143.828 169.5,144C 170.942,144.377 171.942,145.21 172.5,146.5C 172.167,146.5 171.833,146.5 171.5,146.5C 169.833,146.5 168.167,146.5 166.5,146.5C 162.584,144.587 158.584,142.92 154.5,141.5C 154.5,140.833 154.833,140.5 155.5,140.5 Z"/></g>
<g><path style="opacity:1" fill="#977e30" d="M 227.5,142.5 C 225.383,144.655 222.716,145.655 219.5,145.5C 221.936,144.129 224.603,143.129 227.5,142.5 Z"/></g>
<g><path style="opacity:1" fill="#594212" d="M 171.5,146.5 C 171.833,146.5 172.167,146.5 172.5,146.5C 182.112,147.874 191.778,148.541 201.5,148.5C 201.5,148.833 201.5,149.167 201.5,149.5C 191.192,150.105 181.192,149.105 171.5,146.5 Z"/></g>
<g><path style="opacity:1" fill="#b89935" d="M 215.5,146.5 C 211.262,148.956 206.596,149.956 201.5,149.5C 201.5,149.167 201.5,148.833 201.5,148.5C 206.271,148.462 210.938,147.796 215.5,146.5 Z"/></g>
<g><path style="opacity:1" fill="#433410" d="M 119.5,149.5 C 121.989,149.241 123.656,150.241 124.5,152.5C 122.566,151.89 120.899,150.89 119.5,149.5 Z"/></g>
<g><path style="opacity:1" fill="#a28432" d="M 167.5,159.5 C 169.898,159.259 171.898,159.926 173.5,161.5C 171.102,161.741 169.102,161.074 167.5,159.5 Z"/></g>
<g><path style="opacity:1" fill="#665218" d="M 144.5,161.5 C 150.166,162.39 155.5,164.057 160.5,166.5C 154.834,165.61 149.5,163.943 144.5,161.5 Z"/></g>
<g><path style="opacity:1" fill="#a58a33" d="M 178.5,162.5 C 187.815,163.232 197.148,163.566 206.5,163.5C 201.36,164.488 196.026,164.821 190.5,164.5C 186.295,164.283 182.295,163.617 178.5,162.5 Z"/></g>
<g><path style="opacity:1" fill="#47310e" d="M 206.5,163.5 C 208.199,163.34 209.866,163.506 211.5,164C 207.693,165.881 203.693,167.047 199.5,167.5C 200.263,166.732 201.263,166.232 202.5,166C 198.312,165.824 194.312,165.324 190.5,164.5C 196.026,164.821 201.36,164.488 206.5,163.5 Z"/></g>
<g><path style="opacity:1" fill="#473712" d="M 162.5,166.5 C 174.482,167.309 186.482,167.642 198.5,167.5C 186.368,170.493 174.368,170.159 162.5,166.5 Z"/></g>
<g><path style="opacity:1" fill="#442e09" d="M 89.5,195.5 C 89.5,195.167 89.5,194.833 89.5,194.5C 95.8333,194.5 102.167,194.5 108.5,194.5C 108.5,195.833 108.5,197.167 108.5,198.5C 103.5,198.5 98.5,198.5 93.5,198.5C 98.0166,197.834 102.683,197.167 107.5,196.5C 101.537,195.504 95.5368,195.171 89.5,195.5 Z"/></g>
<g><path style="opacity:1" fill="#9c832d" d="M 158.5,194.5 C 158.173,203.682 158.507,212.682 159.5,221.5C 161.179,221.715 162.179,221.048 162.5,219.5C 162.5,211.167 162.5,202.833 162.5,194.5C 163.494,203.652 163.827,212.985 163.5,222.5C 161.5,222.5 159.5,222.5 157.5,222.5C 157.173,212.985 157.506,203.652 158.5,194.5 Z"/></g>
<g><path style="opacity:1" fill="#281c0d" d="M 170.5,194.5 C 177.061,193.919 183.395,194.752 189.5,197C 196.687,203.354 197.354,210.354 191.5,218C 189.423,219.705 187.09,220.872 184.5,221.5C 179.833,221.5 175.167,221.5 170.5,221.5C 170.5,212.5 170.5,203.5 170.5,194.5 Z"/></g>
<g><path style="opacity:1" fill="#1a1511" d="M 162.5,219.5 C 162.179,221.048 161.179,221.715 159.5,221.5C 159.169,212.808 159.502,204.141 160.5,195.5C 161.167,203.657 161.833,211.657 162.5,219.5 Z"/></g>
<g><path style="opacity:1" fill="#bb9c3c" d="M 93.5,198.5 C 98.5,198.5 103.5,198.5 108.5,198.5C 104.03,199.486 99.3633,199.819 94.5,199.5C 94.5,201.5 94.5,203.5 94.5,205.5C 98.7016,205.183 102.702,205.517 106.5,206.5C 102.167,206.5 97.8333,206.5 93.5,206.5C 93.5,203.833 93.5,201.167 93.5,198.5 Z"/></g>
<g><path style="opacity:1" fill="#816722" d="M 170.5,194.5 C 170.5,203.5 170.5,212.5 170.5,221.5C 175.167,221.5 179.833,221.5 184.5,221.5C 179.695,222.487 174.695,222.821 169.5,222.5C 169.173,212.985 169.506,203.652 170.5,194.5 Z"/></g>
<g><path style="opacity:1" fill="#775916" d="M 149.5,197.5 C 150.906,197.973 151.573,198.973 151.5,200.5C 150.094,200.027 149.427,199.027 149.5,197.5 Z"/></g>
<g><path style="opacity:1" fill="#302003" d="M 158.5,194.5 C 159.833,194.5 161.167,194.5 162.5,194.5C 162.5,202.833 162.5,211.167 162.5,219.5C 161.833,211.657 161.167,203.657 160.5,195.5C 159.502,204.141 159.169,212.808 159.5,221.5C 158.507,212.682 158.173,203.682 158.5,194.5 Z"/></g>
<g><path style="opacity:1" fill="#3e2a08" d="M 219.5,194.5 C 219.5,194.833 219.5,195.167 219.5,195.5C 213.5,195.5 207.5,195.5 201.5,195.5C 201.5,204.167 201.5,212.833 201.5,221.5C 201.167,221.5 200.833,221.5 200.5,221.5C 200.5,212.5 200.5,203.5 200.5,194.5C 206.833,194.5 213.167,194.5 219.5,194.5 Z"/></g>
<g><path style="opacity:1" fill="#4d390e" d="M 129.5,194.5 C 134.511,194.334 139.511,194.501 144.5,195C 145.737,195.232 146.737,195.732 147.5,196.5C 141.87,195.708 136.203,195.375 130.5,195.5C 130.5,204.167 130.5,212.833 130.5,221.5C 130.167,221.5 129.833,221.5 129.5,221.5C 129.5,212.5 129.5,203.5 129.5,194.5 Z"/></g>
<g><path style="opacity:1" fill="#f3ca39" d="M 184.5,199.5 C 190.268,202.365 192.102,207.032 190,213.5C 188.362,215.734 186.195,217.067 183.5,217.5C 180.833,217.5 178.167,217.5 175.5,217.5C 175.5,211.5 175.5,205.5 175.5,199.5C 178.5,199.5 181.5,199.5 184.5,199.5 Z"/></g>
<g><path style="opacity:1" fill="#b09537" d="M 184.5,199.5 C 181.5,199.5 178.5,199.5 175.5,199.5C 175.5,205.5 175.5,211.5 175.5,217.5C 178.167,217.5 180.833,217.5 183.5,217.5C 180.713,218.477 177.713,218.81 174.5,218.5C 174.5,211.833 174.5,205.167 174.5,198.5C 178.042,198.187 181.375,198.521 184.5,199.5 Z"/></g>
<g><path style="opacity:1" fill="#a48730" d="M 219.5,194.5 C 220.451,195.919 220.784,197.585 220.5,199.5C 215.5,199.5 210.5,199.5 205.5,199.5C 205.5,201.5 205.5,203.5 205.5,205.5C 210.032,205.182 214.366,205.515 218.5,206.5C 218.167,206.5 217.833,206.5 217.5,206.5C 213.167,206.5 208.833,206.5 204.5,206.5C 204.5,203.833 204.5,201.167 204.5,198.5C 209.5,198.5 214.5,198.5 219.5,198.5C 219.5,197.5 219.5,196.5 219.5,195.5C 219.5,195.167 219.5,194.833 219.5,194.5 Z"/></g>
<g><path style="opacity:1" fill="#261b0e" d="M 147.5,196.5 C 148.167,196.833 148.833,197.167 149.5,197.5C 149.427,199.027 150.094,200.027 151.5,200.5C 151.632,203.57 151.299,206.57 150.5,209.5C 148.855,210.479 147.521,211.812 146.5,213.5C 148.422,215.687 150.088,218.02 151.5,220.5C 150.081,221.451 148.415,221.784 146.5,221.5C 145.921,218.669 144.588,216.336 142.5,214.5C 139.713,213.523 136.713,213.19 133.5,213.5C 133.5,216.167 133.5,218.833 133.5,221.5C 132.5,221.5 131.5,221.5 130.5,221.5C 130.5,212.833 130.5,204.167 130.5,195.5C 136.203,195.375 141.87,195.708 147.5,196.5 Z"/></g>
<g><path style="opacity:1" fill="#f6cd37" d="M 145.5,207.5 C 145.5,208.167 145.167,208.5 144.5,208.5C 141.5,208.5 138.5,208.5 135.5,208.5C 135.5,205.833 135.5,203.167 135.5,200.5C 138.518,200.335 141.518,200.502 144.5,201C 145.423,203.041 145.756,205.208 145.5,207.5 Z"/></g>
<g><path style="opacity:1" fill="#d5b541" d="M 145.5,207.5 C 145.756,205.208 145.423,203.041 144.5,201C 141.518,200.502 138.518,200.335 135.5,200.5C 135.5,203.167 135.5,205.833 135.5,208.5C 138.5,208.5 141.5,208.5 144.5,208.5C 141.375,209.479 138.042,209.813 134.5,209.5C 134.5,205.833 134.5,202.167 134.5,198.5C 137.85,198.335 141.183,198.502 144.5,199C 147.942,201.656 148.276,204.49 145.5,207.5 Z"/></g>
<g><path style="opacity:1" fill="#32250d" d="M 93.5,198.5 C 93.5,201.167 93.5,203.833 93.5,206.5C 97.8333,206.5 102.167,206.5 106.5,206.5C 106.737,207.791 106.404,208.791 105.5,209.5C 104.306,208.223 102.64,207.556 100.5,207.5C 98.8333,207.667 97.1667,207.833 95.5,208C 96.056,208.383 96.3893,208.883 96.5,209.5C 95.209,209.263 94.209,209.596 93.5,210.5C 93.5,212.833 93.5,215.167 93.5,217.5C 92.9987,214.105 91.9987,210.772 90.5,207.5C 91.9766,204.566 92.9766,201.566 93.5,198.5 Z"/></g>
<g><path style="opacity:1" fill="#1c1415" d="M 105.5,209.5 C 102.5,209.5 99.5,209.5 96.5,209.5C 96.3893,208.883 96.056,208.383 95.5,208C 97.1667,207.833 98.8333,207.667 100.5,207.5C 102.64,207.556 104.306,208.223 105.5,209.5 Z"/></g>
<g><path style="opacity:1" fill="#c39f41" d="M 151.5,200.5 C 152.158,201.793 152.492,203.293 152.5,205C 152.431,206.986 151.765,208.486 150.5,209.5C 151.299,206.57 151.632,203.57 151.5,200.5 Z"/></g>
<g><path style="opacity:1" fill="#6c5316" d="M 106.5,206.5 C 107.434,207.568 107.768,208.901 107.5,210.5C 102.833,210.5 98.1667,210.5 93.5,210.5C 94.209,209.596 95.209,209.263 96.5,209.5C 99.5,209.5 102.5,209.5 105.5,209.5C 106.404,208.791 106.737,207.791 106.5,206.5 Z"/></g>
<g><path style="opacity:1" fill="#e7c43d" d="M 129.5,194.5 C 129.5,203.5 129.5,212.5 129.5,221.5C 128.883,221.389 128.383,221.056 128,220.5C 127.503,217.854 127.336,215.187 127.5,212.5C 118.798,212.776 110.132,212.443 101.5,211.5C 99.9446,211.722 98.6113,212.389 97.5,213.5C 96.8333,212.833 96.1667,212.167 95.5,211.5C 94.5481,213.045 94.2148,214.712 94.5,216.5C 96.4147,216.216 98.0813,216.549 99.5,217.5C 97.5,217.5 95.5,217.5 93.5,217.5C 93.5,215.167 93.5,212.833 93.5,210.5C 98.1667,210.5 102.833,210.5 107.5,210.5C 108.612,208.256 110.112,208.256 112,210.5C 112.278,209.584 112.778,208.918 113.5,208.5C 113.5,209.5 113.5,210.5 113.5,211.5C 116.833,211.5 120.167,211.5 123.5,211.5C 123.5,210.5 123.5,209.5 123.5,208.5C 125.042,209.301 126.708,209.634 128.5,209.5C 128.179,204.305 128.513,199.305 129.5,194.5 Z"/></g>
<g><path style="opacity:1" fill="#38280f" d="M 113.5,208.5 C 116.833,208.5 120.167,208.5 123.5,208.5C 123.5,209.5 123.5,210.5 123.5,211.5C 120.167,211.5 116.833,211.5 113.5,211.5C 113.5,210.5 113.5,209.5 113.5,208.5 Z"/></g>
<g><path style="opacity:1" fill="#1f160d" d="M 219.5,195.5 C 219.5,196.5 219.5,197.5 219.5,198.5C 214.5,198.5 209.5,198.5 204.5,198.5C 204.5,201.167 204.5,203.833 204.5,206.5C 208.833,206.5 213.167,206.5 217.5,206.5C 217.5,207.5 217.5,208.5 217.5,209.5C 213.167,209.5 208.833,209.5 204.5,209.5C 204.5,212.5 204.5,215.5 204.5,218.5C 209.5,218.5 214.5,218.5 219.5,218.5C 219.5,219.5 219.5,220.5 219.5,221.5C 213.5,221.5 207.5,221.5 201.5,221.5C 201.5,212.833 201.5,204.167 201.5,195.5C 207.5,195.5 213.5,195.5 219.5,195.5 Z"/></g>
<g><path style="opacity:1" fill="#775e22" d="M 217.5,206.5 C 217.833,206.5 218.167,206.5 218.5,206.5C 218.5,207.833 218.5,209.167 218.5,210.5C 214.167,210.5 209.833,210.5 205.5,210.5C 205.5,212.833 205.5,215.167 205.5,217.5C 210.5,217.5 215.5,217.5 220.5,217.5C 220.5,219.167 220.5,220.833 220.5,222.5C 213.646,222.824 206.979,222.491 200.5,221.5C 200.833,221.5 201.167,221.5 201.5,221.5C 207.5,221.5 213.5,221.5 219.5,221.5C 219.5,220.5 219.5,219.5 219.5,218.5C 214.5,218.5 209.5,218.5 204.5,218.5C 204.5,215.5 204.5,212.5 204.5,209.5C 208.833,209.5 213.167,209.5 217.5,209.5C 217.5,208.5 217.5,207.5 217.5,206.5 Z"/></g>
<g><path style="opacity:1" fill="#7d6424" d="M 142.5,214.5 C 139.833,214.5 137.167,214.5 134.5,214.5C 134.5,217.167 134.5,219.833 134.5,222.5C 132.585,222.784 130.919,222.451 129.5,221.5C 129.833,221.5 130.167,221.5 130.5,221.5C 131.5,221.5 132.5,221.5 133.5,221.5C 133.5,218.833 133.5,216.167 133.5,213.5C 136.713,213.19 139.713,213.523 142.5,214.5 Z"/></g>
<g><path style="opacity:1" fill="#faeecc" d="M 25.5,214.5 C 27.9051,218.759 29.5717,223.426 30.5,228.5C 28.732,226.078 27.232,223.412 26,220.5C 25.5045,218.527 25.3379,216.527 25.5,214.5 Z"/></g>
<g><path style="opacity:1" fill="#1c140b" d="M 89.5,195.5 C 95.5368,195.171 101.537,195.504 107.5,196.5C 102.683,197.167 98.0166,197.834 93.5,198.5C 92.9766,201.566 91.9766,204.566 90.5,207.5C 91.9987,210.772 92.9987,214.105 93.5,217.5C 98.3054,218.487 103.305,218.821 108.5,218.5C 108.5,219.5 108.5,220.5 108.5,221.5C 102.167,221.5 95.8333,221.5 89.5,221.5C 89.5,212.833 89.5,204.167 89.5,195.5 Z"/></g>
<g><path style="opacity:1" fill="#755b1f" d="M 89.5,194.5 C 89.5,194.833 89.5,195.167 89.5,195.5C 89.5,204.167 89.5,212.833 89.5,221.5C 95.8333,221.5 102.167,221.5 108.5,221.5C 108.5,220.5 108.5,219.5 108.5,218.5C 103.305,218.821 98.3054,218.487 93.5,217.5C 95.5,217.5 97.5,217.5 99.5,217.5C 102.833,217.5 106.167,217.5 109.5,217.5C 109.5,219.167 109.5,220.833 109.5,222.5C 102.5,222.5 95.5,222.5 88.5,222.5C 88.1731,212.985 88.5064,203.652 89.5,194.5 Z"/></g>
<g><path style="opacity:1" fill="#88691d" d="M 151.5,220.5 C 152.043,220.56 152.376,220.893 152.5,221.5C 150.364,222.793 148.364,222.793 146.5,221.5C 148.415,221.784 150.081,221.451 151.5,220.5 Z"/></g>
<g><path style="opacity:1" fill="#e0e0e0" d="M 282.5,64.5 C 283.5,64.5 284.5,64.5 285.5,64.5C 285.413,67.5983 285.913,67.9316 287,65.5C 287.743,67.4406 287.576,69.2739 286.5,71C 287.667,71.5 288.5,72.3333 289,73.5C 293.669,89.4616 295.836,105.795 295.5,122.5C 294.172,142.996 294.172,163.496 295.5,184C 294.74,192.477 294.24,200.977 294,209.5C 291.339,236.335 278.839,257.168 256.5,272C 239.088,281.708 220.588,286.208 201,285.5C 168.852,284.685 136.686,284.185 104.5,284C 96.8586,282.339 89.192,280.839 81.5,279.5C 81.5,278.5 81.5,277.5 81.5,276.5C 80.1266,276.657 78.7932,276.49 77.5,276C 79.8782,275.489 82.2115,274.822 84.5,274C 80.4695,273.674 76.4695,273.674 72.5,274C 70.5,272.667 68.5,271.333 66.5,270C 67.756,269.583 68.4226,268.75 68.5,267.5C 70.5475,269.075 72.8808,270.075 75.5,270.5C 76.5,270.5 77.5,270.5 78.5,270.5C 80.4385,272.163 82.7718,272.829 85.5,272.5C 87.3792,273.341 89.3792,273.675 91.5,273.5C 91.5,273.833 91.5,274.167 91.5,274.5C 92.2625,275.268 93.2625,275.768 94.5,276C 93.5,276.333 92.5,276.667 91.5,277C 94.5,277.333 97.5,277.667 100.5,278C 141.171,278.833 181.837,278.667 222.5,277.5C 239.436,275.707 253.936,269.041 266,257.5C 266.49,256.207 266.657,254.873 266.5,253.5C 271.093,252.241 274.093,249.241 275.5,244.5C 276.482,243.859 277.482,243.193 278.5,242.5C 280.204,238.61 281.704,234.61 283,230.5C 283.308,231.308 283.808,231.975 284.5,232.5C 285.022,228.092 286.355,224.092 288.5,220.5C 288.471,218.971 287.804,217.804 286.5,217C 287.448,216.517 288.448,216.351 289.5,216.5C 289.835,207.137 290.502,197.804 291.5,188.5C 290.167,165.167 290.167,141.833 291.5,118.5C 290.777,106.901 289.611,95.2346 288,83.5C 287.641,80.4557 286.974,80.1224 286,82.5C 285.789,76.2208 284.623,70.2208 282.5,64.5 Z"/></g>
<g><path style="opacity:1" fill="#faeac8" d="M 30.5,228.5 C 33.669,232.833 36.3357,237.5 38.5,242.5C 36.461,241.328 35.1276,239.662 34.5,237.5C 33.5416,237.047 32.7083,236.381 32,235.5C 31.5604,233.134 31.0604,230.801 30.5,228.5 Z"/></g>
<g><path style="opacity:1" fill="#cdc194" d="M 275.5,232.5 C 274.939,236.168 273.272,239.168 270.5,241.5C 271.611,238.144 273.277,235.144 275.5,232.5 Z"/></g>
<g><path style="opacity:1" fill="#cfbe93" d="M 269.5,242.5 C 268.567,245.37 266.9,247.704 264.5,249.5C 265.433,246.63 267.1,244.296 269.5,242.5 Z"/></g>
<g><path style="opacity:1" fill="#dac181" d="M 256.5,256.5 C 255.198,258.822 253.198,260.155 250.5,260.5C 252.147,258.674 254.147,257.34 256.5,256.5 Z"/></g>
<g><path style="opacity:1" fill="#cccac3" d="M 282.5,214.5 C 281.579,221.612 280.579,228.612 279.5,235.5C 278.5,235.5 277.5,235.5 276.5,235.5C 276.632,238.57 276.299,241.57 275.5,244.5C 274.093,249.241 271.093,252.241 266.5,253.5C 266.657,254.873 266.49,256.207 266,257.5C 253.936,269.041 239.436,275.707 222.5,277.5C 181.837,278.667 141.171,278.833 100.5,278C 97.5,277.667 94.5,277.333 91.5,277C 92.5,276.667 93.5,276.333 94.5,276C 93.2625,275.768 92.2625,275.268 91.5,274.5C 134.168,274.667 176.835,274.5 219.5,274C 220.737,273.768 221.737,273.268 222.5,272.5C 225.829,272.785 228.829,272.118 231.5,270.5C 233.102,268.926 235.102,268.259 237.5,268.5C 242.032,266.403 246.365,264.069 250.5,261.5C 250.5,261.167 250.5,260.833 250.5,260.5C 253.198,260.155 255.198,258.822 256.5,256.5C 258.248,253.084 260.914,250.75 264.5,249.5C 266.9,247.704 268.567,245.37 269.5,242.5C 270.167,242.5 270.5,242.167 270.5,241.5C 273.272,239.168 274.939,236.168 275.5,232.5C 277.832,226.512 280.165,220.512 282.5,214.5 Z"/></g>
<g><path style="opacity:1" fill="#dac188" d="M 250.5,261.5 C 246.365,264.069 242.032,266.403 237.5,268.5C 240.987,264.918 245.32,262.585 250.5,261.5 Z"/></g>
<g><path style="opacity:1" fill="#e8d395" d="M 68.5,267.5 C 68.5,267.167 68.5,266.833 68.5,266.5C 71.1003,267.468 73.4336,268.801 75.5,270.5C 72.8808,270.075 70.5475,269.075 68.5,267.5 Z"/></g>
<g><path style="opacity:1" fill="#e6cf85" d="M 78.5,270.5 C 81.0673,270.721 83.4006,271.388 85.5,272.5C 82.7718,272.829 80.4385,272.163 78.5,270.5 Z"/></g>
<g><path style="opacity:1" fill="#dcc77e" d="M 231.5,270.5 C 228.829,272.118 225.829,272.785 222.5,272.5C 225.273,271.343 228.273,270.676 231.5,270.5 Z"/></g>
<g><path style="opacity:1" fill="#e3c96b" d="M 222.5,272.5 C 221.737,273.268 220.737,273.768 219.5,274C 176.835,274.5 134.168,274.667 91.5,274.5C 91.5,274.167 91.5,273.833 91.5,273.5C 135.183,273.801 178.85,273.468 222.5,272.5 Z"/></g>
</svg>
